HIERARCHY
ROOT Hips
{
	OFFSET -0.001795 -0.223333 0.028219
	CHANNELS 6 Xposition Yposition Zposition Zrotation Yrotation Xrotation 
	JOINT LeftUpLeg
	{
		OFFSET 0.069520 -0.091406 -0.006815
		CHANNELS 3 Zrotation Yrotation Xrotation
		JOINT LeftLeg
		{
			OFFSET 0.034277 -0.375199 -0.004496
			CHANNELS 3 Zrotation Yrotation Xrotation
			JOINT LeftFoot
			{
				OFFSET -0.013596 -0.397961 -0.043693
				CHANNELS 3 Zrotation Yrotation Xrotation
				JOINT LeftToe
				{
					OFFSET 0.026358 -0.055791 0.119288
					CHANNELS 3 Zrotation Yrotation Xrotation
					End Site
					{
						OFFSET 0.000000 0.000000 0.000000
					}
				}
			}
		}
	}
	JOINT RightUpLeg
	{
		OFFSET -0.067670 -0.090522 -0.004320
		CHANNELS 3 Zrotation Yrotation Xrotation
		JOINT RightLeg
		{
			OFFSET -0.038290 -0.382569 -0.008850
			CHANNELS 3 Zrotation Yrotation Xrotation
			JOINT RightFoot
			{
				OFFSET 0.015774 -0.398415 -0.042312
				CHANNELS 3 Zrotation Yrotation Xrotation
				JOINT RightToe
				{
					OFFSET -0.025372 -0.048144 0.123348
					CHANNELS 3 Zrotation Yrotation Xrotation
					End Site
					{
						OFFSET 0.000000 0.000000 0.000000
					}
				}
			}
		}
	}
	JOINT Spine
	{
		OFFSET -0.002533 0.108963 -0.026696
		CHANNELS 3 Zrotation Yrotation Xrotation
		JOINT Spine1
		{
			OFFSET 0.005487 0.135180 0.001092
			CHANNELS 3 Zrotation Yrotation Xrotation
			JOINT Spine2
			{
				OFFSET 0.001457 0.052922 0.025425
				CHANNELS 3 Zrotation Yrotation Xrotation
				JOINT Neck
				{
					OFFSET -0.002778 0.213870 -0.042857
					CHANNELS 3 Zrotation Yrotation Xrotation
					JOINT Head
					{
						OFFSET 0.005152 0.064970 0.051349
						CHANNELS 3 Zrotation Yrotation Xrotation
						End Site
						{
							OFFSET 0.000000 0.000000 0.000000
						}
					}
				}
				JOINT LeftShoulder
				{
					OFFSET 0.078845 0.121749 -0.034090
					CHANNELS 3 Zrotation Yrotation Xrotation
					JOINT LeftArm
					{
						OFFSET 0.090977 0.030469 -0.008868
						CHANNELS 3 Zrotation Yrotation Xrotation
						JOINT LeftForeArm
						{
							OFFSET 0.259612 -0.012772 -0.027456
							CHANNELS 3 Zrotation Yrotation Xrotation
							JOINT LeftHand
							{
								OFFSET 0.249234 0.008986 -0.001171
								CHANNELS 3 Zrotation Yrotation Xrotation
								End Site
								{
									OFFSET 0.000000 0.000000 0.000000
								}
							}
						}
					}
				}
				JOINT RightShoulder
				{
					OFFSET -0.081759 0.118833 -0.038615
					CHANNELS 3 Zrotation Yrotation Xrotation
					JOINT RightArm
					{
						OFFSET -0.096012 0.032551 -0.009143
						CHANNELS 3 Zrotation Yrotation Xrotation
						JOINT RightForeArm
						{
							OFFSET -0.253742 -0.013329 -0.021401
							CHANNELS 3 Zrotation Yrotation Xrotation
							JOINT RightHand
							{
								OFFSET -0.255298 0.007772 -0.005559
								CHANNELS 3 Zrotation Yrotation Xrotation
								End Site
								{
									OFFSET 0.000000 0.000000 0.000000
								}
							}
						}
					}
				}
			}
		}
	}
}
MOTION
Frames: 18
Frame Time: 0.050000
0.000000 0.949337 0.000000 -2.241365 -0.559747 -1.580404 4.010464 0.061142 1.596257 -1.692875 0.211155 -1.202653 4.832673 11.755000 8.137840 0.000000 0.000000 0.000000 0.969566 0.067232 -0.793112 -0.788052 0.214139 2.772371 1.038732 -0.585946 6.118394 0.000000 0.000000 0.000000 5.149814 -0.135594 1.426362 -1.374975 0.675415 -1.020169 -3.347937 3.225309 8.333786 13.137198 -6.573371 -16.903611 0.000000 0.000000 0.000000 -19.936612 -11.641643 3.519948 -52.943083 -2.086362 -5.542500 -9.472162 -25.277577 2.940976 0.000000 0.000000 0.000000 20.725763 3.235153 1.025077 59.635151 7.008752 -2.875206 5.736221 23.552967 2.092625 0.000000 0.000000 0.000000 
0.000115 0.948558 0.000690 -2.547495 -1.040345 -1.193815 4.139434 0.065107 1.704892 -1.397043 0.193318 -1.713163 5.397054 12.549713 7.213180 0.000000 0.000000 0.000000 1.230898 0.128567 -1.398057 -0.844179 0.251367 3.395385 0.801131 -1.123856 6.061036 0.000000 0.000000 0.000000 5.724256 -0.092315 0.782887 -1.440767 0.698111 -0.396212 -3.913311 3.577300 7.770274 15.277248 -7.432340 -18.653462 0.000000 0.000000 0.000000 -19.627222 -11.325273 3.272721 -52.855050 -2.251238 -5.401303 -9.465309 -26.100751 3.017700 0.000000 0.000000 0.000000 20.148511 3.079492 0.987394 61.310808 6.529489 -3.079431 5.113758 24.113943 2.040087 0.000000 0.000000 0.000000 
0.000172 0.948038 0.001109 -2.404097 -1.448023 -1.074736 4.160779 0.061941 1.595027 -1.683265 0.222992 -1.741563 6.191265 14.012848 8.047491 0.000000 0.000000 0.000000 1.449796 0.147208 -1.596856 -1.355271 0.325558 3.490028 1.198833 -0.653498 6.834534 0.000000 0.000000 0.000000 5.424698 -0.078461 0.645798 -0.737802 0.374917 -1.289439 -4.287779 4.136855 8.186805 14.758041 -7.107704 -18.622855 0.000000 0.000000 0.000000 -19.782363 -11.598240 3.324886 -52.521782 -2.123276 -5.429307 -9.510739 -24.743048 2.853737 0.000000 0.000000 0.000000 20.555576 3.507112 1.344951 60.377129 6.385864 -3.200105 6.130539 24.151717 2.256171 0.000000 0.000000 0.000000 
0.000088 0.948002 0.001444 -2.825036 -1.621394 -1.524344 4.591923 0.089467 2.151606 -1.814791 0.238217 -1.829359 6.696128 14.824365 7.633322 0.000000 0.000000 0.000000 2.130955 0.136307 -1.532787 -1.517304 0.369584 3.884125 1.462149 -0.030023 6.705127 0.000000 0.000000 0.000000 5.501970 -0.084784 0.809059 -0.631072 0.314132 -0.638766 -3.846406 3.396642 7.504095 15.076380 -7.162519 -19.390020 0.000000 0.000000 0.000000 -19.157807 -11.089774 3.285510 -53.294980 -2.249597 -5.480258 -9.267955 -25.034659 2.869132 0.000000 0.000000 0.000000 19.772135 4.274066 1.512570 60.741279 6.712851 -2.927669 6.058254 23.705924 2.142323 0.000000 0.000000 0.000000 
0.000006 0.948159 0.001644 -3.005218 -1.794201 -1.686902 4.811423 0.083786 2.061704 -1.541292 0.205402 -1.503542 6.671296 14.824341 8.120376 0.000000 0.000000 0.000000 2.358090 0.136050 -1.541921 -1.630299 0.400352 4.150968 1.597322 0.206063 6.793688 0.000000 0.000000 0.000000 5.428720 -0.088732 0.899404 -0.116034 0.066373 -0.533248 -3.953908 3.438804 7.102050 15.774654 -7.792897 -18.528213 0.000000 0.000000 0.000000 -19.249452 -11.423022 3.450561 -53.243924 -2.736626 -5.225326 -9.140969 -24.113534 2.731120 0.000000 0.000000 0.000000 19.979554 4.505802 1.623076 60.008894 6.965008 -2.749773 6.578954 23.798746 2.242570 0.000000 0.000000 0.000000 
-0.000044 0.948363 0.001855 -3.331950 -2.146196 -1.874338 5.041291 0.097991 2.312233 -1.566255 0.207069 -1.409263 7.070926 15.456794 7.732570 0.000000 0.000000 0.000000 2.837208 0.138189 -1.586222 -1.826417 0.437874 4.315458 1.852095 0.835056 6.592659 0.000000 0.000000 0.000000 5.500250 -0.100916 1.077412 0.041134 0.001134 -1.024953 -3.576039 3.193978 7.547175 16.475569 -8.202595 -18.927037 0.000000 0.000000 0.000000 -19.046327 -11.499341 3.656210 -53.723204 -3.182468 -5.164657 -8.804386 -23.850315 2.659789 0.000000 0.000000 0.000000 19.819994 5.305639 1.941602 59.921445 7.662578 -2.422904 6.032577 22.896655 2.019877 0.000000 0.000000 0.000000 
0.000041 0.948657 0.001948 -3.416343 -2.373513 -1.926855 5.146869 0.100841 2.336715 -1.563392 0.209102 -1.486614 7.209949 15.715202 8.074528 0.000000 0.000000 0.000000 3.008532 0.156833 -1.747940 -2.056986 0.487558 4.590728 2.134260 1.523346 6.427339 0.000000 0.000000 0.000000 5.436462 -0.099614 1.087396 0.039656 -0.000684 -0.948976 -3.430831 3.123383 7.512614 17.201474 -8.656529 -18.956961 0.000000 0.000000 0.000000 -18.615906 -11.370039 3.649304 -53.893307 -3.404818 -5.099305 -8.605816 -23.812155 2.622208 0.000000 0.000000 0.000000 19.732129 5.311043 1.884192 60.047255 8.177054 -2.148335 5.969785 22.436380 1.952969 0.000000 0.000000 0.000000 
0.000193 0.948968 0.002007 -3.594928 -2.507742 -1.800969 5.393254 0.083045 2.063943 -1.721041 0.218826 -1.127202 7.278561 15.806016 7.807059 0.000000 0.000000 0.000000 3.272493 0.176619 -1.924933 -2.274170 0.526111 4.702394 2.211794 1.848332 6.127348 0.000000 0.000000 0.000000 5.276684 -0.083632 0.896933 0.059057 -0.006844 -1.114165 -2.969018 2.654325 7.690730 18.176512 -9.194896 -19.412198 0.000000 0.000000 0.000000 -18.488016 -10.923615 3.593967 -54.029273 -3.821365 -4.980961 -8.528381 -23.924714 2.649543 0.000000 0.000000 0.000000 19.342485 5.836579 2.007873 60.096997 8.604460 -1.920468 5.826658 21.647761 1.824059 0.000000 0.000000 0.000000 
0.000464 0.949144 0.002040 -3.859342 -2.712974 -1.773642 5.680546 0.077246 1.998872 -1.856313 0.233554 -1.115774 7.567963 16.302987 7.988638 0.000000 0.000000 0.000000 3.515945 0.174931 -1.928582 -2.385506 0.536341 4.610976 2.404905 2.280302 6.094652 0.000000 0.000000 0.000000 5.279258 -0.085182 0.912610 0.131824 -0.042583 -1.083411 -2.692517 2.800540 7.564740 19.404655 -9.859980 -19.675283 0.000000 0.000000 0.000000 -18.223422 -10.988626 3.626761 -54.224746 -3.901020 -4.956871 -8.619102 -23.918843 2.666805 0.000000 0.000000 0.000000 19.337591 6.033200 2.111114 59.618162 8.734758 -1.838246 6.151712 21.244389 1.835383 0.000000 0.000000 0.000000 
0.000747 0.949246 0.002032 -4.202630 -3.062840 -1.800724 5.882878 0.077153 1.949826 -1.841860 0.228681 -0.860631 7.830116 16.726244 7.814539 0.000000 0.000000 0.000000 3.801038 0.161059 -1.843867 -2.511284 0.550443 4.551495 2.627585 2.788648 6.025047 0.000000 0.000000 0.000000 5.425093 -0.090640 0.973907 0.104657 -0.024666 -1.415227 -2.363903 2.821779 7.860537 20.823797 -10.530092 -20.460453 0.000000 0.000000 0.000000 -17.925449 -10.967705 3.689713 -54.585272 -4.135852 -4.935106 -8.697963 -24.251746 2.737801 0.000000 0.000000 0.000000 19.142993 6.517654 2.325699 59.302795 9.099915 -1.677455 6.331006 20.531946 1.784934 0.000000 0.000000 0.000000 
0.001116 0.949246 0.002030 -4.409936 -3.130144 -1.802903 6.130307 0.066492 1.760894 -1.973044 0.239293 -0.615998 8.006130 17.017929 7.724133 0.000000 0.000000 0.000000 3.887730 0.173416 -1.940601 -2.564361 0.558612 4.559725 2.806780 3.151024 6.084229 0.000000 0.000000 0.000000 5.499221 -0.086463 0.922873 0.068068 -0.011530 -1.220897 -2.161545 2.862765 7.719593 21.417133 -10.859734 -20.513076 0.000000 0.000000 0.000000 -17.804933 -11.170998 3.795894 -54.668982 -4.271951 -4.868612 -8.820747 -24.313715 2.770333 0.000000 0.000000 0.000000 19.058063 6.746056 2.441868 59.154557 9.418858 -1.500043 6.386601 19.957006 1.732364 0.000000 0.000000 0.000000 
0.001493 0.949386 0.002083 -4.619568 -3.406610 -1.937024 6.358874 0.071041 1.787921 -2.144384 0.255953 -0.357930 8.208544 17.355037 7.706602 0.000000 0.000000 0.000000 3.972189 0.153702 -1.797289 -2.672957 0.566035 4.443081 3.006797 3.412031 6.354022 0.000000 0.000000 0.000000 5.499527 -0.090232 1.000344 0.020720 0.012204 -1.379056 -1.814395 2.766971 7.871663 21.937824 -11.224964 -20.481046 0.000000 0.000000 0.000000 -18.220824 -10.929717 3.753574 -54.472025 -3.979402 -5.008583 -8.950682 -24.629799 2.851942 0.000000 0.000000 0.000000 19.182170 7.001843 2.502723 58.592920 9.153600 -1.641563 6.399795 20.055088 1.734587 0.000000 0.000000 0.000000 
0.001835 0.949593 0.002213 -4.752728 -3.584416 -2.012587 6.554572 0.073165 1.796610 -2.159778 0.257777 -0.305256 8.311190 17.535996 8.057949 0.000000 0.000000 0.000000 4.039875 0.126197 -1.596661 -2.722309 0.555575 4.188869 3.212178 3.725956 6.563706 0.000000 0.000000 0.000000 5.428862 -0.099799 1.134604 -0.035295 0.036854 -1.340213 -1.561000 2.784987 7.716442 22.625794 -11.717426 -20.241857 0.000000 0.000000 0.000000 -18.763549 -11.085458 3.862460 -54.015478 -3.641377 -5.101475 -9.105715 -24.845963 2.914445 0.000000 0.000000 0.000000 19.623295 7.093645 2.515428 57.630500 8.929673 -1.732095 6.773248 20.057957 1.786879 0.000000 0.000000 0.000000 
0.002072 0.949708 0.002354 -4.794976 -3.784424 -2.230933 6.750691 0.077803 1.778525 -2.216858 0.262698 -0.093299 8.423637 17.728093 8.284327 0.000000 0.000000 0.000000 3.949524 0.074577 -1.196657 -2.789399 0.545169 3.902285 3.460301 4.046843 6.904831 0.000000 0.000000 0.000000 5.292887 -0.123741 1.471966 -0.115495 0.072265 -1.267880 -1.310436 2.698159 7.589926 22.873918 -11.989133 -19.907037 0.000000 0.000000 0.000000 -19.118991 -10.765623 3.748110 -53.729357 -3.433608 -5.165966 -9.412261 -25.281779 3.045662 0.000000 0.000000 0.000000 19.742465 7.326385 2.573807 57.151908 8.616604 -1.861069 6.713834 20.384758 1.801789 0.000000 0.000000 0.000000 
0.002217 0.949927 0.002499 -4.761414 -3.722311 -2.373739 6.730901 0.080616 1.817536 -2.108045 0.246897 0.103327 8.341323 17.597277 8.482139 0.000000 0.000000 0.000000 3.861575 0.045373 -0.956637 -2.851038 0.528376 3.531777 3.562493 4.098860 7.196418 0.000000 0.000000 0.000000 5.168674 -0.132311 1.613317 -0.254139 0.140433 -1.461773 -1.163886 2.629653 7.778049 22.807781 -11.958833 -19.953479 0.000000 0.000000 0.000000 -19.442962 -10.818622 3.803373 -53.434685 -3.058255 -5.321732 -9.656653 -25.595645 3.145711 0.000000 0.000000 0.000000 19.910574 7.214164 2.498225 56.837715 8.372098 -1.994434 6.468339 20.713178 1.794740 0.000000 0.000000 0.000000 
0.002299 0.950025 0.002639 -4.721014 -3.821539 -2.471400 6.664183 0.085597 1.834327 -2.026740 0.238211 0.068018 8.238751 17.425841 8.565092 0.000000 0.000000 0.000000 3.683637 0.023591 -0.770642 -2.653107 0.479627 3.203468 3.584194 4.031905 7.365350 0.000000 0.000000 0.000000 5.076781 -0.143799 1.783191 -0.431949 0.222767 -1.429184 -1.076082 2.693743 7.746942 22.256407 -11.811918 -19.376321 0.000000 0.000000 0.000000 -19.960408 -10.573906 3.668981 -52.798698 -2.458561 -5.508910 -10.065166 -25.791026 3.262322 0.000000 0.000000 0.000000 20.420733 7.065115 2.411234 56.268262 7.911148 -2.206593 6.474056 21.155037 1.839608 0.000000 0.000000 0.000000 
0.002298 0.950070 0.002795 -4.572491 -3.980558 -2.465353 6.404825 0.096729 1.969632 -1.779332 0.213821 -0.192286 8.087745 17.173024 8.667473 0.000000 0.000000 0.000000 3.576424 0.006724 -0.637211 -2.485646 0.432475 2.826029 3.460573 3.637291 7.538592 0.000000 0.000000 0.000000 4.823787 -0.148262 1.875825 -0.540412 0.274102 -1.566835 -1.016502 2.762418 7.751946 21.462424 -11.463317 -18.952948 0.000000 0.000000 0.000000 -20.602016 -10.227894 3.488873 -52.288263 -1.881142 -5.697401 -10.153745 -25.792570 3.283837 0.000000 0.000000 0.000000 20.860470 6.815869 2.255169 55.915691 7.253760 -2.507683 6.415268 21.701422 1.883235 0.000000 0.000000 0.000000 
0.002332 0.950130 0.002970 -4.465155 -4.254652 -2.443212 6.253651 0.109287 2.119138 -1.578631 0.198246 -0.563711 8.209695 17.378784 9.019988 0.000000 0.000000 0.000000 3.490308 0.015972 -0.710943 -2.307834 0.407836 2.804842 3.408762 3.543306 7.455603 0.000000 0.000000 0.000000 4.724466 -0.159311 2.027724 -0.568874 0.285181 -1.508352 -1.074021 2.997121 7.646059 20.667256 -11.124804 -18.400149 0.000000 0.000000 0.000000 -20.952097 -10.153275 3.412299 -51.876728 -1.266685 -5.888170 -10.359384 -25.679215 3.307864 0.000000 0.000000 0.000000 21.336990 6.482663 2.085640 55.665820 6.998780 -2.617865 6.272679 22.141689 1.905776 0.000000 0.000000 0.000000 
